<?xml version="1.0" encoding="UTF-8"?>
<svg id="Layer_2" data-name="Layer 2" xmlns="http://www.w3.org/2000/svg" viewBox="0 0 137.95 151.36">
  <defs>
    <style>
      .cls-1 {
        fill: #fff;
        opacity: .5;
      }

      .cls-1, .cls-2 {
        stroke-width: 0px;
      }

      .cls-2 {
        fill: #292e72;
      }
    </style>
  </defs>
  <g id="Layer_1-2" data-name="Layer 1">
    <g>
      <path class="cls-2" d="m134.69,140.18c2.8,2.95,4.03,6.32,2.75,7.53l-3.37,3.21c-1.28,1.22-4.59-.19-7.38-3.14l-55.42-58.4c-2.8-2.94-4.03-6.32-2.75-7.53l3.38-3.2c1.28-1.21,4.59.2,7.38,3.14l55.42,58.4Z"/>
      <path class="cls-2" d="m80.24,14.49C62.56-4.14,33.13-4.91,14.5,12.77-4.14,30.45-4.91,59.89,12.77,78.52c17.68,18.63,47.12,19.4,65.75,1.72,18.63-17.68,19.41-47.12,1.72-65.75Zm-6.45,60.77c-15.88,15.07-40.97,14.41-56.04-1.47-15.07-15.88-14.41-40.97,1.47-56.03s40.97-14.41,56.03,1.46c15.07,15.88,14.41,40.97-1.47,56.04Z"/>
      <path class="cls-1" d="m75.97,29.35c2.7,3.37,2.15,8.28-1.21,10.98-3.37,2.69-8.29,2.15-10.98-1.22-2.7-3.36-2.16-8.28,1.21-10.97,3.37-2.7,8.28-2.15,10.98,1.21Z"/>
    </g>
  </g>
</svg>