<?xml version="1.0" encoding="UTF-8"?>
<svg id="Layer_2" data-name="Layer 2" xmlns="http://www.w3.org/2000/svg" viewBox="0 0 75.9 34.97">
  <defs>
    <style>
      .cls-1 {
        fill: #f5fcff;
        stroke-width: 0px;
      }
    </style>
  </defs>
  <g id="Layer_1-2" data-name="Layer 1">
    <path class="cls-1" d="m68.02,19.22c-.31,0-.61.02-.9.06-1.09-5.29-5.77-9.27-11.38-9.27-.72,0-1.43.07-2.12.2-2.76-6.02-8.84-10.21-15.9-10.21-7.67,0-14.19,4.94-16.54,11.82-.97-.31-2.01-.47-3.08-.47-5.68,0-10.28,4.6-10.28,10.28,0,.08,0,.15,0,.23-.39-.07-.79-.12-1.21-.12-3.66,0-6.62,2.96-6.62,6.62s2.96,6.62,6.62,6.62h61.41c4.35,0,7.88-3.53,7.88-7.88s-3.53-7.88-7.88-7.88Z"/>
  </g>
</svg>