<?xml version="1.0" encoding="UTF-8"?>
<svg id="Layer_2" data-name="Layer 2" xmlns="http://www.w3.org/2000/svg" viewBox="0 0 88.01 46.27">
  <defs>
    <style>
      .cls-1 {
        fill: #f5fcff;
        stroke-width: 0px;
      }
    </style>
  </defs>
  <g id="Layer_1-2" data-name="Layer 1">
    <path class="cls-1" d="m77.55,25.36c-1.61,0-3.13.37-4.49,1.02-.53-8.7-7.75-15.59-16.59-15.59-2.13,0-4.16.4-6.03,1.13C47.68,4.94,40.87,0,32.91,0,22.72,0,14.43,8.07,14.07,18.17c0,0-.01,0-.02,0-7.76,0-14.05,6.29-14.05,14.05s6.29,14.05,14.05,14.05h63.5c5.77,0,10.45-4.68,10.45-10.45s-4.68-10.45-10.45-10.45Zm-35.43,10.45h-1c.26-.13.52-.26.77-.39.07.13.15.26.23.39Z"/>
  </g>
</svg>