<?xml version="1.0" encoding="UTF-8"?>
<svg id="Layer_2" data-name="Layer 2" xmlns="http://www.w3.org/2000/svg" viewBox="0 0 42.06 77.34">
  <defs>
    <style>
      .cls-1 {
        fill: #483622;
      }

      .cls-1, .cls-2, .cls-3, .cls-4, .cls-5 {
        fill-rule: evenodd;
        stroke-width: 0px;
      }

      .cls-2 {
        fill: #9bc2e9;
      }

      .cls-3 {
        fill: #f6eeee;
      }

      .cls-4 {
        fill: #292e72;
      }

      .cls-5 {
        fill: #eddbc7;
      }
    </style>
  </defs>
  <g id="Layer_1-2" data-name="Layer 1">
    <g>
      <path class="cls-4" d="m6.92,43.59S.87,48.38.53,54.77c-.22,4.07.35,22.57.35,22.57l6.11-.58s.77-23.69,13.74-24.84c13.22-1.18,14.82,24.21,14.82,24.21l6.2.12s1.39-18.78-1.61-23.35c-3-4.57-4.65-11.29-4.65-11.29l-28.56,1.97h0Z"/>
      <path class="cls-2" d="m15.86,10.77c0,.16-.23.38-.33.51-.4.53-.83,1.02-1.23,1.56-1.78,2.38-4.54,3.61-6.82,5.52-1.43,1.19-2.38,2.86-3.34,4.39C2.11,25.99.42,30.01.04,33.85c-.1.99.01,2.04.11,3.01.2,2.03.3,3.98,1.23,5.84.39.79.8,1.38,1.42,2,.25.25.52.68.87.8.68.23,1.2.03,1.89-.11.84-.17,1.73-.12,2.58-.29,1.28-.26,2.63.07,3.92-.07,1.46-.16,3.1-.44,4.57-.29,3.19.32,6.54.14,9.73-.18,2.47-.25,5.03.45,7.48-.04.9-.18,1.49-.93,2.18-1.45.44-.33.91-.66,1.23-1.09.38-.5.34-1.22.58-1.78.48-1.12.75-2.41.94-3.59.12-.7-.13-1.42-.22-2.1-.16-1.29-.31-2.59-.44-3.88-.1-1.03-.3-2.37-.76-3.3-.62-1.23-1.46-2.33-2.07-3.56-1.19-2.38-2.53-4.91-4.61-6.64-1.04-.87-2.41-1.49-3.56-2.18-.78-.47-1.54-.96-2.29-1.45-.64-.42-.78-1.4-1.45-1.74-.83-.42-2.41-1.03-3.59-.83-.92.15-1.89.25-2.79.47-.32.08-.83.33-1.09.33"/>
      <path class="cls-1" d="m15.62,7.46c-.67-.67-1.51-1.1-2.15-1.84-.2-.23-.51-.39-.66-.66-.46-.83-.25-2.64.45-3.33.32-.32.85-.6,1.26-.79.64-.29,1.53-.31,2.21-.24.49.05.98,0,1.47.05,1.17.13,2.33.39,3.46.58.67.11,1.73-.22,2.23-.47.65-.33,1.25-1.11,2.02-.6.59.39.74,1.32.87,1.97.05.26,0,.66.1.89.18.36.11,1.05.11,1.47,0,2.89-2.7,4.99-5.56,4.7-.79-.08-1.78-.31-2.52-.63-.6-.26-1.18-.66-1.78-.87-.6-.2-1.06-.84-1.73-.84"/>
      <path class="cls-5" d="m15.17,6.49c0,.81-.08,1.58-.08,2.39,0,.25-.08.63,0,.87.28.84.24,1.91.39,2.81.09.55.57,1.06.81,1.55.41.83.76,1.56,1.5,2.15,1.51,1.21,3.66-.13,4.65-1.36.35-.44.74-.82.92-1.36.09-.28.32-.52.39-.81.11-.42.43-.88.6-1.29.27-.62.48-1.46.37-2.15-.1-.57-.05-1.24-.37-1.71-.19-.28-.84-.16-1.1-.1-1.01.2-1.93.65-2.97.39-.49-.12-1.16-.56-1.47-.97-.35-.46-.61-.95-1.23-1.1-.69-.17-2.34-.28-2.34.71"/>
      <polygon class="cls-3" points="9.53 31.22 10.04 46.73 29.07 46.23 29.14 30.61 9.53 31.22 9.53 31.22"/>
    </g>
  </g>
</svg>