<?xml version="1.0" encoding="UTF-8"?>
<svg id="Layer_2" data-name="Layer 2" xmlns="http://www.w3.org/2000/svg" viewBox="0 0 32.74 42.17">
  <defs>
    <style>
      .cls-1 {
        fill: #429fff;
        stroke-width: 0px;
      }
    </style>
  </defs>
  <g id="Layer_1-2" data-name="Layer 1">
    <path class="cls-1" d="m0,37.25l2.64-5.92c3.28,2.64,8.49,4.51,13.53,4.51,6.38,0,9.08-2.28,9.08-5.33C25.24,21.67.88,27.47.88,12.24.88,5.62,6.15,0,17.4,0c4.92,0,10.07,1.29,13.65,3.63l-2.4,5.92c-3.69-2.17-7.73-3.22-11.3-3.22-6.33,0-8.9,2.46-8.9,5.56,0,8.73,24.31,3.05,24.31,18.1,0,6.56-5.33,12.18-16.58,12.18-6.38,0-12.77-1.99-16.17-4.92Z"/>
  </g>
</svg>