<?xml version="1.0" encoding="UTF-8"?>
<svg id="Layer_2" data-name="Layer 2" xmlns="http://www.w3.org/2000/svg" viewBox="0 0 47.71 47.72">
  <defs>
    <style>
      .cls-1 {
        fill: #292e72;
        stroke-width: 0px;
      }
    </style>
  </defs>
  <g id="Layer_1-2" data-name="Layer 1">
    <path class="cls-1" d="m46.75,29.57h.75s.01-.74.01-.74l.17-8.79v-.75s-.74-.01-.74-.01l-5.98-.12c-.33-1.21-.79-2.38-1.36-3.5l4.3-4.14.54-.52-.52-.54-6.09-6.33-.52-.54-.54.52-4.32,4.16c-1.04-.58-2.13-1.06-3.25-1.42l.11-5.89V.2s-.74-.01-.74-.01L19.79.01h-.75s-.01.74-.01.74l-.11,5.89c-1.08.3-2.13.71-3.14,1.21l-4.07-4.23-.52-.54-.54.52-6.33,6.09-.54.52.52.54,3.98,4.14c-.62,1.07-1.13,2.19-1.51,3.36l-5.8-.11H.2s-.01.74-.01.74L.01,27.67v.75s.74.01.74.01l5.73.11c.34,1.27.83,2.5,1.45,3.66l-4.14,3.98-.54.52.52.54,6.09,6.33.52.54.54-.52,4.23-4.07c1.06.58,2.18,1.05,3.34,1.41l-.11,5.82v.75s.74.01.74.01l8.79.17h.75s.01-.74.01-.74l.12-5.97c1.05-.31,2.07-.72,3.05-1.22l4.16,4.32.52.54.54-.52,6.33-6.09.54-.52-.52-.54-4.14-4.3c.58-1.02,1.05-2.09,1.42-3.2l6.05.12h0Zm-12.36-5.51c-.11,5.88-4.99,10.58-10.87,10.46-5.88-.11-10.58-4.99-10.46-10.87.11-5.88,4.99-10.58,10.87-10.46,5.88.11,10.58,4.99,10.46,10.87Z"/>
  </g>
</svg>