<?xml version="1.0" encoding="UTF-8"?>
<svg id="Layer_2" data-name="Layer 2" xmlns="http://www.w3.org/2000/svg" viewBox="0 0 68.95 68.71">
  <defs>
    <style>
      .cls-1 {
        fill: #292e72;
        stroke-width: 0px;
      }
    </style>
  </defs>
  <g id="Layer_1-2" data-name="Layer 1">
    <path class="cls-1" d="m67.94,29.04l1-.4-.4-1-4.71-11.7-.4-1-1,.4-7.96,3.21c-1.11-1.41-2.38-2.71-3.77-3.86l3.36-7.89.42-.99-.99-.42L41.87.42l-1-.42-.42,1-3.37,7.92c-1.7-.19-3.41-.2-5.1-.05l-3.16-7.84L28.42.02l-1,.4-11.7,4.71-1,.4.4,1,3.16,7.84c-1.26,1.01-2.42,2.14-3.47,3.36l-7.75-3.3-.99-.42-.42,1L.68,26.63l-.42.99.99.42,7.59,3.23c-.22,1.76-.26,3.53-.11,5.28l-7.73,3.11-1,.4.4,1,4.71,11.7.4,1,1-.4,7.63-3.07c1.17,1.48,2.5,2.83,3.97,4.03l-3.23,7.59-.42.99.99.42,11.61,4.94,1,.42.42-1,3.3-7.75c1.73.17,3.47.17,5.21-.02l3.12,7.75.4,1,1-.4,11.7-4.71,1-.4-.4-1-3.2-7.95c1.21-1,2.34-2.12,3.35-3.33l7.92,3.37,1,.42.42-1,4.94-11.61.42-.99-.99-.42-7.89-3.36c.19-1.67.22-3.36.08-5.02l8.06-3.25h0Zm-19.43-.34c3.16,7.84-.65,16.78-8.49,19.94-7.84,3.16-16.78-.65-19.94-8.49-3.16-7.84.65-16.78,8.49-19.94,7.84-3.16,16.78.65,19.94,8.49Z"/>
  </g>
</svg>